<?xml version="1.0" standalone="no"?>
<!DOCTYPE svg PUBLIC "-//W3C//DTD SVG 1.1//EN" "http://www.w3.org/Graphics/SVG/1.1/DTD/svg11.dtd" >
<svg xmlns="http://www.w3.org/2000/svg">
<metadata>
Created by FontPrep 20130207 at Thu Jun 12 16:11:54 2014
 By Andrew Fogarty
V2.02 - (c) 2003-06 by fawe
</metadata>
<defs>
<font id="a7a4d8715938a922c6a8c6587abbdcd3" horiz-adv-x='1024' >
  <font-face 
    font-family="Volpiano"
    font-weight="400"
    font-stretch="normal"
    units-per-em="2048"
    panose-1="2 11 5 0 0 0 0 0 0 0"
    ascent="1638"
    descent="-410"
    x-height="1655"
    cap-height="1655"
    bbox="-125 -1231 1722 2957"
    underline-thickness="50"
    underline-position="-75"
    unicode-range="U+0020-00B6"
  />
<missing-glyph horiz-adv-x="1536" 
d="M1247 33v1214h-958v-1214h958zM256 0v1280h1024v-1280h-1024z" />
    <glyph glyph-name=".notdef" horiz-adv-x="1536" 
d="M1247 33v1214h-958v-1214h958zM256 0v1280h1024v-1280h-1024z" />
    <glyph glyph-name=".null" horiz-adv-x="0" 
 />
    <glyph glyph-name="nonmarkingreturn" horiz-adv-x="0" 
 />
    <glyph glyph-name="space" unicode=" " horiz-adv-x="1024" 
 />
    <glyph glyph-name="hyphen" unicode="-" 
d="M0 -16v30h596v-30h-596zM0 395v31h596v-31h-596zM0 803v31h596v-31h-596zM0 1214v31h596v-31h-596zM0 1624v31h596v-31h-596z" />
    <glyph glyph-name="one" unicode="1" horiz-adv-x="1581" 
d="M1257 352q0 21 -4 43h-290l63 -323q102 22 166 99t65 181zM956 657q-22 0 -45 -4l45 -227h291q-24 100 -104 166q-82 65 -187 65zM944 1935q-49 0 -96 -88t-76 -192h264q8 41 8 82q0 198 -100 198zM756 1559q0 -164 32 -261l58 54q12 6 49 49q96 108 131 223h-260
q-10 -43 -10 -65zM805 1038q-76 -61 -191 -204h230zM430 436v-10h145q-2 16 -2 35q0 117 67 211t175 131h-225q-160 -203 -160 -367zM856 29q66 0 137 22l-67 344h-285q-2 -10 -2 -18q0 -133 178 -230q51 -28 78 -30v-15q-99 11 -197 100t-116 185l-2 8h-148
q19 -147 148 -256.5t276 -109.5zM920 426l-48 227q-88 -11 -150 -75t-77 -152h275zM1110 1661v-6h612v-31h-614q-8 -209 -115 -379h729v-31h-749q-60 -84 -139 -147l45 -233h843v-31h-620q112 -39 180 -141.5t74 -235.5h366v-31h-364q-2 -143 -82 -243t-217 -138h663v-30
h-680l62 -340q4 -23 4 -45q0 -109 -95 -193t-197 -84t-188.5 80t-86.5 164t54 137t125 53t122 -47t51 -119t-51 -120t-115 -48q-12 0 -25 3q68 -64 138 -64q32 0 86 27q149 75 149 215q0 22 -6 47l-59 334h-1010v30h657q-122 45 -215.5 147.5t-130.5 233.5h-311v31h303
q-14 61 -14 123q0 106 84 254h-373v31h391q96 163 264 344q21 20 37 36h-692v31h723q25 25 33 31q-15 39 -37.5 159.5t-26.5 188.5h-692v31h690q4 133 64 284q73 191 174 191q76 0 135 -203q47 -160 47 -266z" />
    <glyph glyph-name="two" unicode="2" horiz-adv-x="1481" 
d="M0 14h1640v-30h-1640v30zM0 426h229q117 43 240 131q172 121 258 246h-727v31h748q100 159 106 380h-238q-16 -120 -168 -120t-182 120h-266v31h262q-2 10 -2 23q0 88 52 182t120 130t154 44h-586v31h1640v-31h-950q156 -12 266 -118t129 -261h555v-31h-553v-16
q0 -168 -184 -364h737v-31h-766q-182 -180 -462 -334q-47 -25 -88 -43h1316v-31h-1390q-17 -6 -25 -6l-8 2v4h-217v31zM854 1245q0 133 -68 227t-194 95q-68 0 -132 -36q-64 -35 -65 -97q1 -62 55 -74t107 -21q57 -20 61 -94h236zM1340.5 1053q-0.5 -41 -28.5 -69t-69 -28
t-69.5 29t-28 70t28.5 69t69 28.5t69.5 -29t28 -70.5zM1243 1499q41 -1 71 -29t29 -70q0 -42 -28 -69q-29 -26 -70 -25.5t-71 28.5t-29 69t29 69t69 27z" />
    <glyph glyph-name="three" unicode="3" horiz-adv-x="295" 
d="M152 14v381h-213v31h213v377h-213v31h213v380h-213v31h213v379h-213v31h407v-31h-164v-379h164v-31h-164v-380h164v-31h-164v-377h164v-31h-164v-381h164v-30h-407v30h213z" />
    <glyph glyph-name="four" unicode="4" horiz-adv-x="469" 
d="M436 14v381h-233v-381h233zM436 426v377h-233v-377h233zM438 834v380h-235v-380h235zM438 1245v379h-235v-379h235zM-125 1655h594v-1671h-594v30h297v381h-297v31h297v377h-297v31h297v380h-297v31h297v379h-297v31z" />
    <glyph glyph-name="five" unicode="5" horiz-adv-x="635" 
d="M436 14v381h-233v-381h233zM436 426v377h-233v-377h233zM438 834v380h-235v-380h235zM438 1245v379h-235v-379h235zM-125 1655h760v-1671h-760v30h297v381h-297v31h297v377h-297v31h297v380h-297v31h297v379h-297v31z" />
    <glyph glyph-name="nine" unicode="9" 
d="M-123 -395h719v-31h-719v31zM-123 -805h719v-31h-215q90 -45 90 -129q0 -59 -46 -123t-108 -98q-73 -45 -151 -45t-123 47t-44 118t64 138q56 64 136 92h-322v31zM0 -16v30h596v-30h-596zM0 395v31h596v-31h-596zM0 803v31h596v-31h-596zM0 1214v31h596v-31h-596zM0 1624
v31h596v-31h-596z" />
    <glyph glyph-name="A" unicode="A" horiz-adv-x="293" 
d="M-104 -395h536v-29h-536v29zM-102 -805h116q23 51 77 86q53 35 107 35t88 -32t33 -56q0 -24 -2 -33h115v-31h-125q-26 -53 -80.5 -90t-110.5 -37t-86 32t-30 73q0 10 2 22h-104v31zM0 14h412v-30h-412v30zM0 426h412v-31h-412v31zM0 834h412v-31h-412v31zM0 1245h412v-31
h-412v31zM0 1655h412v-31h-412v31z" />
    <glyph glyph-name="B" unicode="B" horiz-adv-x="293" 
d="M202 -479q50 0 84 -32t33 -69q-2 -90 -104 -149q-51 -29 -103 -29t-82 32t-30 73q2 88 98 143q54 31 104 31zM-102 -395h534v-31h-534v31zM0 14h412v-30h-412v30zM0 426h412v-31h-412v31zM0 834h412v-31h-412v31zM0 1245h412v-31h-412v31zM0 1655h412v-31h-412v31z" />
    <glyph glyph-name="C" unicode="C" horiz-adv-x="293" 
d="M-102 -395h116q23 51 77 86q53 35 107 35t88 -32t33 -69q0 -10 -2 -20h115v-31h-125q-26 -53 -80.5 -90t-110.5 -37t-86 32q-30 31 -30 57t2 38h-104v31zM0 14h412v-30h-412v30zM0 426h412v-31h-412v31zM0 834h412v-31h-412v31zM0 1245h412v-31h-412v31zM0 1655h412v-31
h-412v31z" />
    <glyph glyph-name="D" unicode="D" horiz-adv-x="293" 
d="M202 -70q50 0 84 -32t33 -68q-2 -90 -104 -149q-51 -29 -103 -29t-82 32t-30 72q2 88 98 144q54 30 104 30zM0 -16v30h412v-30h-412zM0 395v31h412v-31h-412zM0 803v31h412v-31h-412zM0 1214v31h412v-31h-412zM0 1624v31h412v-31h-412z" />
    <glyph glyph-name="E" unicode="E" horiz-adv-x="293" 
d="M0 14h14q23 52 77 86q53 34 107 35t88 -31t33 -69q0 -10 -2 -21h95v-30h-105q-26 -54 -80.5 -90.5t-110.5 -36.5q-56 -1 -86 31t-30 73q0 10 2 23h-2v30zM0 426h412v-31h-412v31zM0 834h412v-31h-412v31zM0 1245h412v-31h-412v31zM0 1655h412v-31h-412v31z" />
    <glyph glyph-name="F" unicode="F" horiz-adv-x="293" 
d="M202 340q50 0 84 -32t33 -68q-2 -90 -104 -150q-51 -29 -103 -29t-82 32t-30 73q2 88 98 143q54 31 104 31zM0 -16v30h412v-30h-412zM0 395v31h412v-31h-412zM0 803v31h412v-31h-412zM0 1214v31h412v-31h-412zM0 1624v31h412v-31h-412z" />
    <glyph glyph-name="G" unicode="G" horiz-adv-x="293" 
d="M0 14h412v-30h-412v30zM0 426h14q25 49 77.5 84t106.5 35t88 -32t33 -69q0 -8 -2 -18h95v-31h-105q-23 -55 -79 -92t-112 -37t-86 32t-30 73q0 10 4 24h-4v31zM0 834h412v-31h-412v31zM0 1245h412v-31h-412v31zM0 1655h412v-31h-412v31z" />
    <glyph glyph-name="H" unicode="H" horiz-adv-x="293" 
d="M202 750q50 0 84 -32t33 -69q-2 -90 -104 -149q-51 -29 -103 -29t-82 32t-30 72q2 89 98 144q54 31 104 31zM0 -16v30h412v-30h-412zM0 395v31h412v-31h-412zM0 803v31h412v-31h-412zM0 1214v31h412v-31h-412zM0 1624v31h412v-31h-412z" />
    <glyph glyph-name="I" unicode="I" horiz-adv-x="516" 
d="M371 803h-181v-107l181 49v58zM371 834v112l-181 -51v-61h181zM145 1376h45v-131h426v-31h-426v-206l226 61v-235h200v-31h-200v-377h200v-31h-200v-133h-45v133h-371v31h371v197l-226 -62v242h-145v31h145v380h-145v31h145v131zM0 14h616v-30h-616v30zM0 1655h616v-31
h-616v31z" />
    <glyph glyph-name="J" unicode="J" horiz-adv-x="293" 
d="M0 14h412v-30h-412v30zM0 426h412v-31h-412v31zM0 834h14q25 51 77.5 85.5t106.5 34.5t88 -32t33 -68q0 -8 -2 -20h95v-31h-105q-23 -53 -79 -90t-112 -37t-86 32t-30 57q0 26 4 38h-4v31zM0 1245h412v-31h-412v31zM0 1655h412v-31h-412v31z" />
    <glyph glyph-name="K" unicode="K" horiz-adv-x="293" 
d="M202 1159q50 1 84 -31t33 -69q-2 -90 -104 -150q-51 -28 -103 -28q-52 -1 -82 31t-30 73q2 88 98 143q54 31 104 31zM0 -16v30h412v-30h-412zM0 395v31h412v-31h-412zM0 803v31h412v-31h-412zM0 1214v31h412v-31h-412zM0 1624v31h412v-31h-412z" />
    <glyph glyph-name="L" unicode="L" horiz-adv-x="293" 
d="M0 14h412v-30h-412v30zM0 426h412v-31h-412v31zM0 834h412v-31h-412v31zM0 1245h14q25 51 78 85q52 34 106 34t88 -32t33 -68q0 -9 -2 -19h95v-31h-105q-23 -53 -79 -91t-112 -38t-86 32q-30 33 -30 59t4 38h-4v31zM0 1655h412v-31h-412v31z" />
    <glyph glyph-name="M" unicode="M" horiz-adv-x="293" 
d="M202 1569q50 0 84 -32t33 -69q-2 -90 -104 -149q-51 -29 -103 -29t-82 32t-30 73q2 88 98 143q54 31 104 31zM0 -16v30h412v-30h-412zM0 395v31h412v-31h-412zM0 803v31h412v-31h-412zM0 1214v31h412v-31h-412zM0 1624v31h412v-31h-412z" />
    <glyph glyph-name="N" unicode="N" horiz-adv-x="293" 
d="M0 1624v31h12q22 51 81 85t109 34t84 -32t33 -69q0 -9 -1 -18h94v-31h-102q-22 -58 -84 -93q-62 -36 -114 -36t-82 32t-30 58t3 39h-3zM0 -16v30h412v-30h-412zM0 395v31h412v-31h-412zM0 803v31h412v-31h-412zM0 1214v31h412v-31h-412z" />
    <glyph glyph-name="O" unicode="O" horiz-adv-x="293" 
d="M202 1978q50 0 84 -32t33 -68q-2 -90 -104 -149q-51 -29 -103 -29t-82 32t-30 72q2 88 98 144q54 30 104 30zM0 -16v30h412v-30h-412zM0 395v31h412v-31h-412zM0 803v31h412v-31h-412zM0 1214v31h412v-31h-412zM0 1624v31h412v-31h-412z" />
    <glyph glyph-name="P" unicode="P" horiz-adv-x="293" 
d="M-102 2062h116q23 52 77 86q53 34 107 35t88 -31t33 -69q0 -10 -2 -21h115v-30h-125q-26 -54 -80.5 -90.5t-110.5 -36.5q-56 -1 -86 31t-30 73q0 10 2 23h-104v30zM0 1655h412v-31h-412v31zM0 -14v30h412v-30h-412zM0 395v31h412v-31h-412zM0 803v31h412v-31h-412z
M0 1214v31h412v-31h-412z" />
    <glyph glyph-name="W" unicode="W" horiz-adv-x="516" 
d="M371 -16h-181v-107l181 49v58zM371 14v113l-181 -51v-62h181zM145 557h45v-131h426v-31h-426v-207l226 62v-236h200v-30h-200v-541h-45v360l-226 -61v242h-145v30h145v381h-145v31h145v131zM0 834h616v-31h-616v31zM0 1245h616v-31h-616v31zM0 1655h616v-31h-616v31z" />
    <glyph glyph-name="X" unicode="X" horiz-adv-x="516" 
d="M371 1360v201l-181 -52v-198zM145 1991h45v-336h119l107 28v-28h200v-31h-200v-379h200v-31h-200v-337h-45v337h-84l-142 -38v38h-145v31h145v379h-145v31h145v336zM190 1624v-2l7 2h-7zM0 14h616v-30h-616v30zM0 426h616v-31h-616v31zM0 834h616v-31h-616v31z" />
    <glyph glyph-name="Y" unicode="Y" horiz-adv-x="516" 
d="M145 -57h45v-369l226 61v-806h-45v360l-226 -61v815zM0 16h616v-30h-616v30zM371 -688v201l-181 -52v-198zM0 426h616v-31h-616v31zM0 834h616v-31h-616v31zM0 1245h616v-31h-616v31zM0 1655h616v-31h-616v31z" />
    <glyph glyph-name="Z" unicode="Z" horiz-adv-x="516" 
d="M145 2810h45v-369l226 62v-807h-45v360l-226 -61v815zM0 16h616v-30h-616v30zM371 2179v201l-181 -51v-199zM0 426h616v-31h-616v31zM0 834h616v-31h-616v31zM0 1245h616v-31h-616v31zM0 1655h616v-31h-616v31z" />
    <glyph glyph-name="a" unicode="a" 
d="M-123 -805h135q37 93 124 143t162 50t124 -48t49 -100q0 -22 -6 -45h131v-31h-143q-43 -92 -128 -141t-162 -49t-121 47t-44 109q2 16 6 34h-127v31zM-123 -426v31h719v-31h-719zM0 -16v30h596v-30h-596zM0 395v31h596v-31h-596zM0 803v31h596v-31h-596zM0 1214v31h596
v-31h-596zM0 1624v31h596v-31h-596z" />
    <glyph glyph-name="b" unicode="b" 
d="M-123 -395h719v-31h-215q90 -45 90 -125v-4q0 -59 -45 -123q-46 -64 -116 -103q-70 -40 -147 -40t-121 47q-44 46 -43 116t61 136t139 96h-322v31zM0 -16v30h596v-30h-596zM0 395v31h596v-31h-596zM0 803v31h596v-31h-596zM0 1214v31h596v-31h-596zM0 1624v31h596v-31
h-596z" />
    <glyph glyph-name="c" unicode="c" 
d="M-123 -395h135q37 94 124 143t162 49t124 -47t49 -100q0 -23 -6 -45h131v-31h-143q-43 -92 -128 -141t-162 -49t-121 47t-44 108q2 17 6 35h-127v31zM0 14h596v-30h-596v30zM0 426h596v-31h-596v31zM0 834h596v-31h-596v31zM0 1245h596v-31h-596v31zM0 1655h596v-31h-596
v31z" />
    <glyph glyph-name="d" unicode="d" 
d="M0 14h596v-30h-215q90 -45 90 -125v-4q0 -60 -45.5 -123.5t-115.5 -103.5t-147 -40t-121 48t-43 116q1 70 61 136t139 96h-199v30zM0 426h596v-31h-596v31zM0 834h596v-31h-596v31zM0 1245h596v-31h-596v31zM0 1655h596v-31h-596v31z" />
    <glyph glyph-name="e" unicode="e" 
d="M0 14h12q37 95 124 144t162 49t124 -47t49 -101q0 -22 -6 -45h131v-30h-143q-43 -93 -128 -142t-162 -49t-121 47t-44 109q2 16 6 35h-4v30zM0 426h596v-31h-596v31zM0 834h596v-31h-596v31zM0 1245h596v-31h-596v31zM0 1655h596v-31h-596v31z" />
    <glyph glyph-name="f" unicode="f" 
d="M0 395v31h596v-31h-217q92 -45 92 -127v-4q-1 -78 -67 -150t-148 -100h340v-30h-596v30h88q-90 44 -89 130q1 87 61 154t143 97h-203zM0 834h596v-31h-596v31zM0 1245h596v-31h-596v31zM0 1655h596v-31h-596v31z" />
    <glyph glyph-name="g" unicode="g" 
d="M0 14h596v-30h-596v30zM0 426h12q39 92 125 141t161 49t124 -47t49 -100q0 -20 -6 -43h131v-31h-143q-41 -94 -136 -147q-77 -45 -154 -45t-121 47t-44 108q2 17 6 37h-4v31zM0 834h596v-31h-596v31zM0 1245h596v-31h-596v31zM0 1655h596v-31h-596v31z" />
    <glyph glyph-name="h" unicode="h" 
d="M0 14h596v-30h-596v30zM0 426h86q-28 12 -58 44t-29 102t61 136t141 95h-201v31h596v-31h-217q92 -45 92 -125v-4q-3 -78 -67 -148t-144 -100h336v-31h-596v31zM0 1245h596v-31h-596v31zM0 1655h596v-31h-596v31z" />
    <glyph glyph-name="i" unicode="i" horiz-adv-x="516" 
d="M119 834h174q12 36 12 65q0 57 -45 84q-20 14 -39 14q-43 0 -102 -53v-110zM119 803v-228q11 0 71 78t93 150h-164zM119 1851v-196h497v-31h-497v-379h497v-31h-497v-225q108 76 176 76q86 0 115 -102q6 -25 6 -57t-15 -72h215v-31h-229q-51 -103 -168 -189
q-55 -49 -129 -116v305h-90v31h90v380h-90v31h90v379h-90v31h90v196h29zM0 426h616v-31h-616v31zM0 -16v30h616v-30h-616z" />
    <glyph glyph-name="j" unicode="j" 
d="M0 14h596v-30h-596v30zM0 426h596v-31h-596v31zM0 834h12q37 94 124 143t162 49t124 -47t49 -100q0 -21 -6 -45h131v-31h-143q-41 -91 -127 -141t-163 -50t-121 48t-44 108q2 16 6 35h-4v31zM0 1245h596v-31h-596v31zM0 1655h596v-31h-596v31z" />
    <glyph glyph-name="k" unicode="k" 
d="M0 14h596v-30h-596v30zM0 426h596v-31h-596v31zM0 1214v31h596v-31h-219q94 -45 94 -127v-4q-3 -77 -67 -148t-146 -101h338v-31h-596v31h88q-90 41 -89 129q1 87 63 155t141 96h-203zM0 1655h596v-31h-596v31z" />
    <glyph glyph-name="l" unicode="l" 
d="M0 14h596v-30h-596v30zM0 426h596v-31h-596v31zM0 834h596v-31h-596v31zM0 1245h14q37 91 123 141t161 50t124 -48t49 -100q0 -20 -6 -43h131v-31h-143q-41 -94 -136 -147q-77 -45 -154 -45t-121 47t-44 109q2 18 6 36h-4v31zM0 1655h596v-31h-596v31z" />
    <glyph glyph-name="m" unicode="m" 
d="M0 14h596v-30h-596v30zM0 426h596v-31h-596v31zM0 834h596v-31h-596v31zM0 1624v31h596v-31h-217q92 -45 92 -127v-4q-1 -79 -65 -149t-144 -99h334v-31h-596v31h86q-88 46 -87 130q1 85 61 151t143 98h-203z" />
    <glyph glyph-name="n" unicode="n" 
d="M0 14h596v-30h-596v30zM0 426h596v-31h-596v31zM0 834h596v-31h-596v31zM0 1245h596v-31h-596v31zM0 1655h12q39 92 125 141t161 49t124 -47t49 -100q0 -21 -6 -43h131v-31h-143q-41 -94 -136 -147q-77 -45 -154 -45t-121 47t-44 108q2 17 6 37h-4v31z" />
    <glyph glyph-name="o" unicode="o" 
d="M0 14h596v-30h-596v30zM0 426h596v-31h-596v31zM0 834h596v-31h-596v31zM0 1245h596v-31h-596v31zM298 2050q75 0 124 -47t49 -100q-3 -78 -67 -149t-144 -99h336v-31h-596v31h86q-88 42 -88 137q2 58 44 118t112 100t144 40z" />
    <glyph glyph-name="p" unicode="p" 
d="M-123 2062h135q37 95 124 144t162 49t124 -47t49 -101q0 -22 -6 -45h131v-30h-143q-43 -93 -128 -142t-162 -49t-121 47t-44 109q2 16 6 35h-127v30zM0 1245h596v-31h-596v31zM0 1655h596v-31h-596v31zM0 -16v30h596v-30h-596zM0 395v31h596v-31h-596zM0 803v31h596v-31
h-596z" />
    <glyph glyph-name="q" unicode="q" 
d="M0 1245h596v-31h-596v31zM0 14h596v-30h-596v30zM0 426h596v-31h-596v31zM0 834h596v-31h-596v31zM0 1655h596v-31h-596v31zM0 2062h86q-37 23 -51 37q-37 39 -36 101t44 120t102 95q80 43 155 43t126 -52q45 -40 44 -108q0 -68 -66 -138t-144 -98h336v-30h-596v30z" />
    <glyph glyph-name="r" unicode="r" 
d="M0 1655h596v-31h-596v31zM-123 2472h135q37 94 123 143t163 49t125 -46t48 -101q0 -25 -6 -45h131v-31h-143q-43 -94 -136 -145q-73 -45 -152 -45t-123 48t-44 107q2 11 6 35h-127v31zM0 1245h596v-31h-596v31zM0 2062h596v-30h-596v30zM0 -16v30h596v-30h-596zM0 395v31
h596v-31h-596zM0 803v31h596v-31h-596z" />
    <glyph glyph-name="s" unicode="s" 
d="M0 1655h596v-31h-596v31zM0 1245h596v-31h-596v31zM0 14h596v-30h-596v30zM0 426h596v-31h-596v31zM0 834h596v-31h-596v31zM0 2062h596v-30h-596v30zM298 2867q77 0 125 -47t48 -100q-1 -80 -67 -150t-144 -98h336v-31h-596v31h86q-88 45 -88 137q2 64 45 119
q43 61 111 100t144 39z" />
    <glyph glyph-name="w" unicode="w" horiz-adv-x="516" 
d="M119 14h174q12 37 12 66q0 57 -45 84q-20 14 -39 14q-43 0 -102 -53v-111zM119 -16v-228q11 0 71 77t91 151h-162zM119 1032v-198h497v-31h-497v-377h497v-31h-497v-225q108 76 176 76q86 0 115 -103q6 -24 6 -56t-15 -73h215v-30h-229q-51 -103 -168 -189
q-55 -49 -129 -117v306h-90v30h90v381h-90v31h90v377h-90v31h90v198h29zM0 1214v31h616v-31h-616zM0 1624v31h616v-31h-616z" />
    <glyph glyph-name="x" unicode="x" horiz-adv-x="516" 
d="M119 1245h35q151 174 151 289q0 59 -51 90h-68q-30 -14 -67 -45v-334zM119 1214v-4q2 0 6 4h-6zM119 2486v-831h45q76 45 132 45t87 -45h233v-31h-215q15 -39 15 -76q0 -147 -197 -299l-6 -4h403v-31h-440q-37 -34 -86 -81v81h-90v31h90v379h-90v31h90v831h29zM0 -16v30
h616v-30h-616zM0 395v31h616v-31h-616zM0 803v31h616v-31h-616z" />
    <glyph glyph-name="y" unicode="y" horiz-adv-x="516" 
d="M119 -817h2q14 0 94 110q90 131 90 201t-45 96q-20 15 -39 15q-43 0 -102 -54v-368zM119 459v-33h497v-31h-497v-381h497v-30h-497v-387q108 75 176 75q86 0 115 -102q6 -25 6 -49q0 -154 -197 -299q-55 -49 -129 -117v879h-90v30h90v381h-90v31h90v33h29zM0 834h616v-31
h-616v31zM0 1245h616v-31h-616v31zM0 1655h616v-31h-616v31z" />
    <glyph glyph-name="z" unicode="z" horiz-adv-x="516" 
d="M119 2030q5 0 35 34t61 76q90 134 90 202t-45 95q-20 14 -39 14q-43 0 -102 -53v-368zM119 2957v-514q106 76 184 76t107 -102q6 -25 6 -50q0 -153 -197 -299q-47 -40 -129 -116v1005h29zM0 -16v30h616v-30h-616zM0 395v31h616v-31h-616zM0 803v31h616v-31h-616zM0 1214
v31h616v-31h-616zM0 1624v31h616v-31h-616z" />
    <glyph glyph-name="paragraph" unicode="&#xb6;" horiz-adv-x="1024" 
d="M948 1479v-1479h-94v1401h-307v-1401h-96v782q-172 9 -275 103q-100 93 -100 247t108 250t285 97h479z" />
  </font>
</defs>
</svg>
